# File created by Blade
# Date/Time:  Wed Jan 21 16:14:13 2015
# Frame Rate: 120.000 fps
#------------------------------------------------------
:FULLY-SPECIFIED
:DEGREES
491
root 18.589590 35.576918 -20.202204 -174.048234 -3.869143 -178.759525
Spine -15.858123 -0.686381 -1.319046
Head 9.948156 -2.810728 0.918491
LeftShoulder -12.808094 -28.111964 27.283624
LeftArm -6.213577 12.854410 -10.537700
LeftForeArm 12.896534 -0.000000 -3.044480
LeftHand -11.021232 -0.000000 -1.512641
LeftHandThumb1 -26.253704 0.000000 33.147579
RightShoulder -15.148261 -9.996274 -15.367319
RightArm -7.209505 36.019202 18.927777
RightForeArm -33.801501 -0.000000 5.211969
RightHand -7.973369 -0.000000 8.612253
RightHandThumb1 -24.326973 -0.000000 -32.862282
LeftUpLeg 1.002492 6.131516 0.885650
LeftLeg -4.069996 -0.000000 0.000000
LeftFoot -21.816863 25.569288 -12.734548
LeftToeBase 26.701925 -0.000000 -0.000000
RightUpLeg -0.700523 -9.516070 2.063999
RightLeg 0.409399 -0.000000 -0.000000
RightFoot -23.325965 -26.733679 15.493212
RightToeBase 23.267990 -0.000000 -0.000000
492
root 18.587680 35.577875 -20.174063 -174.116869 -3.745473 -178.751146
Spine -15.871524 -0.536389 -1.295488
Head 10.070840 -2.782748 0.939449
LeftShoulder -12.431763 -28.274729 26.974948
LeftArm -5.099619 12.681619 -10.379490
LeftForeArm 13.212056 -0.000000 -3.083282
LeftHand -11.130250 -0.000000 -1.514954
LeftHandThumb1 -26.253704 0.000000 33.147579
RightShoulder -14.835746 -9.765253 -15.309234
RightArm -6.291786 36.003431 18.821030
RightForeArm -33.808445 -0.000000 5.179892
RightHand -7.904941 -0.000000 8.440703
RightHandThumb1 -24.326973 -0.000000 -32.862282
LeftUpLeg 1.049023 6.284567 0.878568
LeftLeg -4.091607 -0.000000 0.000000
LeftFoot -21.775433 25.569865 -12.705384
LeftToeBase 26.474845 -0.000000 -0.000000
RightUpLeg -0.705808 -9.354437 2.054091
RightLeg 0.442394 -0.000000 -0.000000
RightFoot -23.297764 -26.797741 15.453084
RightToeBase 23.271664 -0.000000 -0.000000
493
root 18.583574 35.577073 -20.158589 -174.309154 -3.814627 -178.751151
Spine -15.731416 -0.591394 -1.225950
Head 10.154945 -2.689296 0.916244
LeftShoulder -12.061818 -28.437577 26.643077
LeftArm -4.087467 12.703002 -10.285319
LeftForeArm 13.454808 0.000000 -3.131576
LeftHand -11.030503 -0.000000 -1.382347
LeftHandThumb1 -26.253704 0.000000 33.147579
RightShoulder -14.548554 -9.604209 -15.256065
RightArm -5.268092 36.252194 18.739697
RightForeArm -33.885354 -0.000000 4.999795
RightHand -7.730037 -0.000000 8.215622
RightHandThumb1 -24.326973 -0.000000 -32.862282
LeftUpLeg 1.215578 6.235440 0.894035
LeftLeg -4.102058 -0.000000 0.000000
LeftFoot -21.760567 25.554652 -12.660995
LeftToeBase 26.736525 -0.000000 -0.000000
RightUpLeg -0.496866 -9.494671 2.016941
RightLeg 0.380627 -0.000000 -0.000000
RightFoot -23.247299 -26.708209 15.402263
RightToeBase 23.356690 -0.000000 -0.000000
494
root 18.582692 35.578132 -20.133663 -174.439641 -3.701256 -178.739275
Spine -15.663774 -0.464696 -1.190524
Head 10.259963 -2.668386 0.908359
LeftShoulder -11.649851 -28.597764 26.343315
LeftArm -3.148661 12.777277 -10.211140
LeftForeArm 13.469982 -0.000000 -3.191681
LeftHand -10.809996 -0.000000 -1.213805
LeftHandThumb1 -26.253704 0.000000 33.147579
RightShoulder -14.178320 -9.437354 -15.186270
RightArm -4.489460 36.311160 18.600519
RightForeArm -33.623164 -0.000000 5.033687
RightHand -7.567042 -0.000000 8.144405
RightHandThumb1 -24.326973 -0.000000 -32.862282
LeftUpLeg 1.336727 6.392557 0.903948
LeftLeg -4.133685 -0.000000 0.000000
LeftFoot -21.714354 25.511386 -12.607010
LeftToeBase 26.814697 -0.000000 -0.000000
RightUpLeg -0.421954 -9.398666 2.000373
RightLeg 0.390564 -0.000000 -0.000000
RightFoot -23.194224 -26.720069 15.338655
RightToeBase 23.387677 -0.000000 -0.000000
495
root 18.582377 35.579399 -20.107973 -174.542527 -3.635461 -178.730222
Spine -15.619312 -0.352116 -1.150082
Head 10.329894 -2.634056 0.912593
LeftShoulder -11.228466 -28.792725 26.009289
LeftArm -2.217365 12.871286 -10.136530
LeftForeArm 13.527922 -0.000000 -3.214951
LeftHand -10.838799 -0.000000 -1.206906
LeftHandThumb1 -26.253704 0.000000 33.147579
RightShoulder -13.882535 -9.341758 -15.110790
RightArm -3.663366 36.644619 18.470854
RightForeArm -33.520833 0.000000 4.958137
RightHand -7.320786 -0.000000 7.915181
RightHandThumb1 -24.326973 -0.000000 -32.862282
LeftUpLeg 1.405147 6.536425 0.915228
LeftLeg -4.140812 -0.000000 0.000000
LeftFoot -21.668330 25.444453 -12.571517
LeftToeBase 26.580290 -0.000000 -0.000000
RightUpLeg -0.358141 -9.320456 1.988393
RightLeg 0.373325 -0.000000 -0.000000
RightFoot -23.136133 -26.710982 15.373340
RightToeBase 23.225055 -0.000000 -0.000000
496
root 18.583165 35.579866 -20.092236 -174.787269 -3.673872 -178.708864
Spine -15.394171 -0.341835 -1.083204
Head 10.404866 -2.548527 0.926423
LeftShoulder -10.829298 -29.011883 25.635876
LeftArm -1.278144 12.807296 -10.000268
LeftForeArm 13.709244 -0.000000 -3.249644
LeftHand -10.771814 0.000000 -1.370543
LeftHandThumb1 -26.253704 0.000000 33.147579
RightShoulder -13.554409 -9.181095 -14.949874
RightArm -2.895907 36.902597 18.165143
RightForeArm -33.355523 -0.000000 4.765110
RightHand -6.877741 -0.000000 7.789148
RightHandThumb1 -24.326973 -0.000000 -32.862282
LeftUpLeg 1.649309 6.490128 0.968155
LeftLeg -4.189086 -0.000000 0.000000
LeftFoot -21.635586 25.425867 -12.537645
LeftToeBase 26.855611 -0.000000 -0.000000
RightUpLeg -0.092359 -9.409636 1.975059
RightLeg 0.292467 -0.000000 -0.000000
RightFoot -23.066637 -26.691500 15.286340
RightToeBase 23.351312 -0.000000 -0.000000
497
root 18.580395 35.581184 -20.072526 -174.978213 -3.674983 -178.735555
Spine -15.208679 -0.344191 -1.060400
Head 10.424728 -2.415994 0.963601
LeftShoulder -10.471491 -29.337855 25.266119
LeftArm -0.453331 12.726461 -9.815462
LeftForeArm 13.904344 -0.000000 -3.190914
LeftHand -10.675790 -0.000000 -1.503187
LeftHandThumb1 -26.253704 0.000000 33.147579
RightShoulder -13.208112 -8.969904 -14.749123
RightArm -2.151943 37.157165 17.775252
RightForeArm -33.001577 -0.000000 4.560743
RightHand -6.428904 -0.000000 7.874852
RightHandThumb1 -24.326973 -0.000000 -32.862282
LeftUpLeg 1.825994 6.544875 0.952739
LeftLeg -4.224625 -0.000000 0.000000
LeftFoot -21.558665 25.380149 -12.508111
LeftToeBase 26.845071 -0.000000 -0.000000
RightUpLeg 0.093558 -9.476883 1.910587
RightLeg 0.249606 -0.000000 -0.000000
RightFoot -22.998980 -26.650529 15.194526
RightToeBase 23.417500 -0.000000 -0.000000
498
root 18.578500 35.584128 -20.034543 -174.972371 -3.532323 -178.746847
Spine -15.260773 -0.144194 -1.054631
Head 10.457764 -2.408650 0.974093
LeftShoulder -10.026020 -29.635143 24.849445
LeftArm 0.394323 12.726468 -9.634589
LeftForeArm 13.982671 -0.000000 -3.230749
LeftHand -10.550228 -0.000000 -1.742537
LeftHandThumb1 -26.253704 0.000000 33.147579
RightShoulder -12.869065 -8.804973 -14.541664
RightArm -1.548542 37.495961 17.313365
RightForeArm -32.770982 -0.000000 4.348098
RightHand -6.142384 -0.000000 7.853577
RightHandThumb1 -24.326973 -0.000000 -32.862282
LeftUpLeg 1.767107 6.748006 0.916467
LeftLeg -4.208119 -0.000000 0.000000
LeftFoot -21.498798 25.333931 -12.472628
LeftToeBase 26.829167 -0.000000 -0.000000
RightUpLeg -0.013852 -9.243428 1.893839
RightLeg 0.308282 -0.000000 -0.000000
RightFoot -22.985878 -26.737400 15.181906
RightToeBase 23.399551 -0.000000 -0.000000
499
root 18.579156 35.587817 -20.003284 -175.010385 -3.556620 -178.761943
Spine -15.249831 -0.135242 -1.037646
Head 10.519616 -2.305989 1.042744
LeftShoulder -9.703557 -29.848884 24.466596
LeftArm 1.341492 12.746937 -9.470137
LeftForeArm 13.823391 0.000000 -3.336883
LeftHand -10.279347 -0.000000 -1.807160
LeftHandThumb1 -26.253704 0.000000 33.147579
RightShoulder -12.550002 -8.661556 -14.291149
RightArm -0.900662 37.834951 16.861995
RightForeArm -32.614296 -0.000000 4.210475
RightHand -6.013293 -0.000000 7.938816
RightHandThumb1 -24.326973 -0.000000 -32.862282
LeftUpLeg 1.724595 6.798717 0.902694
LeftLeg -4.159417 -0.000000 0.000000
LeftFoot -21.448464 25.278146 -12.444482
LeftToeBase 26.826270 -0.000000 -0.000000
RightUpLeg -0.007201 -9.246911 1.879844
RightLeg 0.276127 -0.000000 -0.000000
RightFoot -22.934242 -26.769008 15.159375
RightToeBase 23.453534 -0.000000 -0.000000
500
root 18.576727 35.590533 -19.983647 -175.134774 -3.687799 -178.780289
Spine -15.149482 -0.260319 -0.986422
Head 10.509861 -2.242200 1.058069
LeftShoulder -9.364295 -30.104356 24.065511
LeftArm 2.127444 12.636023 -9.302917
LeftForeArm 13.892593 0.000000 -3.335838
LeftHand -10.120234 0.000000 -1.895079
LeftHandThumb1 -26.253704 0.000000 33.147579
RightShoulder -12.127092 -8.265647 -14.085357
RightArm -0.466593 37.804270 16.236074
RightForeArm -32.372730 -0.000000 3.989874
RightHand -5.814809 -0.000000 7.944471
RightHandThumb1 -24.326973 -0.000000 -32.862282
LeftUpLeg 1.791168 6.746302 0.898487
LeftLeg -4.145387 -0.000000 0.000000
LeftFoot -21.376331 25.217175 -12.405213
LeftToeBase 26.838410 -0.000000 -0.000000
RightUpLeg 0.142653 -9.503937 1.846593
RightLeg 0.184712 -0.000000 -0.000000
RightFoot -22.850785 -26.659554 15.121456
RightToeBase 23.495518 -0.000000 -0.000000
501
root 18.576505 35.593324 -19.952741 -175.168493 -3.730970 -178.792169
Spine -15.136440 -0.282029 -0.939786
Head 10.539482 -2.165484 1.051089
LeftShoulder -8.941817 -30.471581 23.655333
LeftArm 2.737477 12.519479 -9.131186
LeftForeArm 14.189688 -0.000000 -3.258676
LeftHand -10.026540 0.000000 -1.936721
LeftHandThumb1 -26.253704 0.000000 33.147579
RightShoulder -11.792191 -7.990000 -13.929670
RightArm 0.054468 37.910377 15.801829
RightForeArm -32.329271 -0.000000 3.891974
RightHand -5.691197 -0.000000 8.068949
RightHandThumb1 -24.326973 -0.000000 -32.862282
LeftUpLeg 1.759744 6.781761 0.882938
LeftLeg -4.133267 -0.000000 0.000000
LeftFoot -21.293135 25.165053 -12.334291
LeftToeBase 26.851586 -0.000000 -0.000000
RightUpLeg 0.147415 -9.578170 1.829820
RightLeg 0.154801 -0.000000 -0.000000
RightFoot -22.768155 -26.587255 15.144107
RightToeBase 23.368986 -0.000000 -0.000000
502
root 18.576516 35.596654 -19.912651 -175.145381 -3.691432 -178.811625
Spine -15.138422 -0.228504 -0.908033
Head 10.511062 -2.075952 1.073332
LeftShoulder -8.658160 -30.712886 23.320921
LeftArm 3.448556 12.350110 -9.078533
LeftForeArm 14.206392 -0.000000 -3.165293
LeftHand -9.983833 -0.000000 -2.002149
LeftHandThumb1 -26.253704 0.000000 33.147579
RightShoulder -11.407445 -7.522602 -13.849807
RightArm 0.375168 37.859722 15.363748
RightForeArm -32.223500 -0.000000 3.870858
RightHand -5.578410 -0.000000 8.104410
RightHandThumb1 -24.326973 -0.000000 -32.862282
LeftUpLeg 1.659643 6.899442 0.845579
LeftLeg -4.109571 -0.000000 0.000000
LeftFoot -21.210081 25.129075 -12.287982
LeftToeBase 26.629526 -0.000000 -0.000000
RightUpLeg 0.041867 -9.458676 1.820506
RightLeg 0.186899 -0.000000 -0.000000
RightFoot -22.760549 -26.690212 15.085240
RightToeBase 23.482721 -0.000000 -0.000000
503
root 18.575380 35.598912 -19.882925 -175.155316 -3.745002 -178.834752
Spine -15.137573 -0.274478 -0.866760
Head 10.469553 -2.002406 1.067968
LeftShoulder -8.317162 -31.009513 22.962018
LeftArm 4.073208 12.406405 -8.992910
LeftForeArm 14.137553 -0.000000 -3.137957
LeftHand -9.928801 -0.000000 -1.986779
LeftHandThumb1 -26.253704 0.000000 33.147579
RightShoulder -11.027274 -7.164124 -13.795095
RightArm 0.729767 37.874168 14.999694
RightForeArm -32.243679 -0.000000 3.816315
RightHand -5.372647 0.000000 8.077222
RightHandThumb1 -24.326973 -0.000000 -32.862282
LeftUpLeg 1.605901 6.910874 0.815060
LeftLeg -4.091581 -0.000000 0.000000
LeftFoot -21.146000 25.073802 -12.246054
LeftToeBase 26.878580 -0.000000 -0.000000
RightUpLeg 0.015050 -9.513917 1.800561
RightLeg 0.177676 -0.000000 -0.000000
RightFoot -22.735904 -26.683558 15.073550
RightToeBase 23.479281 -0.000000 -0.000000
